<svg width="23" height="26" viewBox="0 0 23 26" fill="none" xmlns="http://www.w3.org/2000/svg">
<path d="M11.5 25C17.299 25 22 19.6274 22 13C22 6.37258 17.299 1 11.5 1C5.70101 1 1 6.37258 1 13C1 19.6274 5.70101 25 11.5 25Z" stroke="#262625" stroke-width="1.2" stroke-linecap="round" stroke-linejoin="round"/>
<path d="M11.5 25C14.5 22.0909 16 18.0909 16 13C16 7.90909 14.5 3.90909 11.5 1C8.5 3.90909 7 7.90909 7 13C7 18.0909 8.5 22.0909 11.5 25Z" stroke="#262625" stroke-width="1.2" stroke-linecap="round" stroke-linejoin="round"/>
<path d="M1.75 9.57129H21.25M1.75 16.4284H21.25" stroke="#262625" stroke-width="1.2" stroke-linecap="round" stroke-linejoin="round"/>
</svg>
